<?xml version="1.0" encoding="UTF-8"?>
<svg xmlns="http://www.w3.org/2000/svg" id="Layer_1" data-name="Layer 1" viewBox="0 0 24 24" >
  <path d="m20.199,19.831c-2.74-1.966-5.199-4.045-5.199-7.831s2.459-5.865,5.199-7.831c.588-.422.881-1.105.783-1.829-.099-.732-.589-1.347-1.28-1.603-1.367-.507-3.396-.737-4.702-.737C8.271,0,3,5.271,3,12s5.271,12,12,12c1.306,0,3.335-.23,4.702-.737.691-.256,1.182-.87,1.28-1.603.098-.724-.195-1.407-.783-1.829Zm-.208,1.695c-.05.371-.288.67-.637.799-1.251.464-3.134.675-4.354.675-6.168,0-11-4.832-11-11S8.832,1,15,1c1.22,0,3.103.211,4.354.675.349.129.587.428.637.799.047.351-.093.681-.375.883-2.841,2.039-5.616,4.387-5.616,8.644s2.774,6.604,5.616,8.644c.282.202.422.532.375.883Z"/>
</svg>
